<?xml version="1.0" encoding="UTF-8" standalone="no"?>
<!-- Created with Inkscape (http://www.inkscape.org/) -->

<svg
   width="25.318829mm"
   height="4.0769334mm"
   viewBox="0 0 25.318829 4.0769334"
   version="1.1"
   id="svg1"
   inkscape:version="1.4.2 (f4327f4, 2025-05-13)"
   sodipodi:docname="chordchemistlogo.svg"
   xmlns:inkscape="http://www.inkscape.org/namespaces/inkscape"
   xmlns:sodipodi="http://sodipodi.sourceforge.net/DTD/sodipodi-0.dtd"
   xmlns="http://www.w3.org/2000/svg"
   xmlns:svg="http://www.w3.org/2000/svg">
  <sodipodi:namedview
     id="namedview1"
     pagecolor="#ffffff"
     bordercolor="#000000"
     borderopacity="0.25"
     inkscape:showpageshadow="2"
     inkscape:pageopacity="0.0"
     inkscape:pagecheckerboard="0"
     inkscape:deskcolor="#d1d1d1"
     inkscape:document-units="mm"
     inkscape:zoom="1.1679082"
     inkscape:cx="47.520856"
     inkscape:cy="7.277969"
     inkscape:window-width="3840"
     inkscape:window-height="1520"
     inkscape:window-x="1911"
     inkscape:window-y="-9"
     inkscape:window-maximized="1"
     inkscape:current-layer="layer1" />
  <defs
     id="defs1" />
  <g
     inkscape:label="Layer 1"
     inkscape:groupmode="layer"
     id="layer1"
     transform="translate(-92.339582,-146.57916)">
    <g
       id="g5"
       transform="matrix(0.26458333,0,0,0.26458333,54.595871,145.31432)">
      <path
         style="fill:#163ae4;fill-opacity:1;stroke-width:1.26787"
         d="m 145.26942,20.140265 c -0.47407,-0.06144 -1.30411,-0.376135 -1.58523,-0.601034 -0.42088,-0.33674 -0.68493,-0.823221 -0.88978,-1.639268 -0.18578,-0.74001 -0.18889,-9.990939 -0.004,-10.7365024 0.41939,-1.6877143 1.37864,-2.3799885 3.30192,-2.3829461 2.55875,-0.00398 3.41217,1.1110921 3.42043,4.4688125 l 0.004,1.078896 h -0.81215 -0.81218 V 9.035785 c 0,-1.753855 -0.19313,-2.6166322 -0.66918,-2.9893214 -0.46398,-0.3632507 -1.21801,-0.4302903 -1.87014,-0.1662673 -0.4364,0.1766761 -0.63548,0.4030975 -0.83385,0.9483636 -0.18637,0.5123461 -0.18776,10.9464851 -8e-4,11.3806831 0.27898,0.650374 0.82122,0.966872 1.65654,0.966872 0.78942,0 1.31028,-0.345866 1.51971,-1.009156 0.0586,-0.185819 0.13336,-1.073022 0.16611,-1.971588 l 0.0595,-1.633757 h 0.81248 0.81247 l -0.0581,1.674856 c -0.0978,2.820221 -0.50866,3.481848 -2.40492,3.873502 -0.44048,0.09098 -1.23952,0.104348 -1.81107,0.0303 z m 16.55223,5.03e-4 c -0.87433,-0.113445 -1.66111,-0.57016 -1.9977,-1.159694 -0.44668,-0.782351 -0.4772,-1.089374 -0.52905,-5.323683 -0.0746,-6.104665 0.0836,-7.3711465 1.0255,-8.2045482 0.53592,-0.4741463 1.37168,-0.6981583 2.48326,-0.6656053 1.64057,0.048049 2.46652,0.6100019 2.91865,1.9857656 0.176,0.5355529 0.18911,0.9369859 0.18911,5.7952159 0,4.753188 -0.0165,5.270829 -0.17984,5.790604 -0.18958,0.601644 -0.51691,1.071039 -0.93299,1.337875 -0.62947,0.403699 -1.86612,0.588169 -2.97694,0.44407 z m 1.302,-0.997265 c 0.33365,-0.06986 0.66941,-0.306677 0.87287,-0.615666 0.31572,-0.479465 0.35406,-1.26057 0.31487,-6.41173 -0.0384,-5.0558245 -0.0425,-5.1439947 -0.25498,-5.5393141 -0.11873,-0.2209437 -0.32051,-0.4770677 -0.44836,-0.5691659 -0.58899,-0.4242713 -1.64031,-0.352944 -2.09805,0.1423295 -0.10985,0.1188587 -0.28185,0.4278949 -0.38222,0.6867326 -0.16948,0.4370199 -0.18096,0.8417729 -0.16083,5.6698689 0.0132,3.291596 0.0603,5.327438 0.12728,5.548611 0.18879,0.624863 0.47338,0.918154 1.03115,1.062748 0.39957,0.103569 0.60111,0.108741 0.99835,0.02558 z m -0.59162,-4.301895 c -0.14816,-0.05997 -0.1774,-4.70272 -0.0303,-4.796804 0.0495,-0.03167 0.16296,-0.04601 0.25308,-0.032 0.14799,0.023 0.16082,0.252615 0.13714,2.437792 -0.0176,1.620727 -0.0608,2.41708 -0.13155,2.426628 -0.0581,0.0078 -0.16066,-0.0081 -0.22843,-0.03563 z m -1.0671,-0.758089 c -0.0391,-0.01591 -0.0712,-0.744794 -0.0712,-1.619871 0,-1.295508 0.0258,-1.599713 0.13879,-1.637689 0.3419,-0.11488 0.37183,0.0297 0.34463,1.664304 -0.0233,1.404178 -0.0455,1.59906 -0.18382,1.609827 -0.0865,0.0067 -0.18928,-7.18e-4 -0.22841,-0.0166 z m 2.08231,-0.06393 c -0.0919,-0.03726 -0.12301,-0.435446 -0.12301,-1.577861 0,-1.326768 0.0205,-1.534959 0.15655,-1.58064 0.10113,-0.03397 0.19144,-0.0385 0.25504,-0.0128 0.13895,0.05625 0.0803,3.18796 -0.06,3.206889 -0.058,0.0078 -0.16065,-0.0083 -0.22842,-0.03563 z m -3.19181,-1.590749 c -0.0265,-0.692606 -0.0363,-0.723741 -0.23071,-0.723741 -0.19447,0 -0.2042,0.03113 -0.23084,0.736786 -0.0283,0.752302 0.0255,0.866486 0.35662,0.755244 0.10195,-0.03425 0.12613,-0.211913 0.10489,-0.768289 z m 5.08923,0.760729 c 0.0799,-0.03902 0.10772,-0.272574 0.0885,-0.745662 -0.0246,-0.608383 -0.0488,-0.69417 -0.20843,-0.734378 -0.13911,-0.03509 -0.20168,-0.03181 -0.27266,0.01436 -0.11055,0.07171 -0.0831,1.397773 0.0304,1.471212 0.10313,0.06675 0.21756,0.06503 0.36202,-0.0054 z m 26.05005,6.919629 c -1.28619,-0.253217 -1.86999,-0.862931 -2.2028,-2.300624 -0.18706,-0.808021 -0.18654,-9.904287 5.9e-4,-10.6862153 0.41092,-1.7169171 1.22602,-2.3388861 3.06899,-2.3418455 1.1551,-0.0019 1.94468,0.300357 2.46754,0.9444166 0.48492,0.5973585 0.77727,1.9814072 0.77727,3.6799052 v 0.923387 h -0.79555 -0.79552 l 0.0391,-0.17728 c 0.0596,-0.269989 -0.1667,-3.1813735 -0.26789,-3.44581 -0.23952,-0.62598 -0.73638,-0.9802022 -1.37494,-0.9802022 -0.76331,0 -1.17457,0.3051203 -1.4471,1.0736651 -0.16529,0.4660781 -0.18041,0.9445081 -0.18041,5.7079721 0,5.40944 0.0132,5.609962 0.42785,6.144572 0.38856,0.501898 1.22515,0.675902 1.91224,0.397729 0.68396,-0.276896 0.83928,-0.753397 0.92469,-2.836842 l 0.0675,-1.650419 h 0.74489 0.74493 l -0.004,1.243298 c -0.004,1.339555 -0.19186,2.659514 -0.45116,3.15449 -0.17814,0.340047 -0.65462,0.788593 -0.99904,0.940486 -0.60486,0.266736 -1.86351,0.365838 -2.65855,0.209322 z m 36.2771,0.02833 c -1.10135,-0.166683 -1.74944,-0.60972 -2.17523,-1.486981 -0.11971,-0.246655 -0.17236,-0.706127 -0.21177,-1.84895 l -0.0524,-1.52073 0.59766,-0.06991 c 0.32872,-0.03845 0.66918,-0.08102 0.75655,-0.09459 0.14142,-0.02197 0.16597,0.121851 0.22303,1.302942 0.0912,1.888469 0.2495,2.361193 0.87537,2.614572 0.3971,0.160767 0.73622,0.191248 1.1799,0.106008 0.47057,-0.09041 0.7149,-0.292992 0.89626,-0.743149 0.3987,-0.989687 0.26615,-2.513393 -0.30864,-3.547412 -0.16574,-0.298173 -0.991,-1.303485 -1.53514,-1.870086 -0.19539,-0.203451 -0.39097,-0.416146 -0.43462,-0.472659 -0.0436,-0.05651 -0.22269,-0.259962 -0.39786,-0.452108 -1.32555,-1.454101 -1.70652,-2.160075 -1.81865,-3.370269 -0.1618,-1.7464586 0.21325,-2.8809125 1.1481,-3.4725668 0.45518,-0.288075 0.91422,-0.3975575 1.76599,-0.4211891 0.59692,-0.016604 0.73949,-0.00502 1.22405,0.098294 0.86342,0.1842587 1.34457,0.5328199 1.73176,1.254558 0.21478,0.4003803 0.40971,1.3962839 0.40991,2.0943099 l 2e-4,0.724778 -0.71645,0.107512 c -0.39405,0.05913 -0.75403,0.107512 -0.79994,0.107512 -0.0459,0 -0.10855,-0.522494 -0.13928,-1.161098 -0.0554,-1.1508728 -0.10312,-1.3468444 -0.44192,-1.8132351 -0.32358,-0.445421 -1.06693,-0.6052421 -1.74333,-0.3748184 -0.418,0.1423987 -0.61579,0.4014007 -0.78426,1.0269553 -0.18162,0.6744222 -0.18186,1.3710972 -7.1e-4,2.0550412 0.22119,0.835221 0.59168,1.363285 1.88874,2.692103 1.48765,1.524051 2.1265,2.391005 2.54855,3.458398 0.18703,0.473017 0.21759,0.725137 0.22089,1.82306 0.004,1.138833 -0.0197,1.325278 -0.2176,1.755875 -0.3735,0.812655 -0.85299,1.211809 -1.69601,1.411821 -0.55059,0.13062 -1.44363,0.16919 -1.99307,0.08601 z m -76.5406,-2.811896 c -0.005,-1.48631 -0.0171,-4.894082 -0.0253,-7.572828 l -0.0149,-4.870449 0.83754,-0.011934 0.83755,-0.011934 v 3.474683 3.474682 h 1.47206 1.47204 V 8.334816 4.8617957 h 0.81219 0.81216 V 8.227666 c 0,2.953968 0.0186,3.368765 0.15228,3.389529 0.22666,0.03521 0.22666,1.594109 0,1.670268 -0.13303,0.04471 -0.15228,0.47294 -0.15228,3.395851 v 3.344683 h -0.81162 -0.81161 l -0.026,-3.668246 -0.0259,-3.668248 -1.44666,-0.01142 -1.44667,-0.01141 v 3.679649 3.679655 h -0.81218 -0.81216 z m 16.55833,-0.686015 c 0,-2.214595 -0.0352,-3.397192 -0.10148,-3.413795 -0.0615,-0.01539 -0.10147,-0.314725 -0.10147,-0.760363 0,-0.445643 0.0399,-0.744966 0.10147,-0.760366 0.0665,-0.0166 0.10148,-1.207831 0.10148,-3.439684 V 4.8511379 l 1.64974,0.018939 c 1.42162,0.016258 1.70717,0.030943 2.0654,0.1056618 0.77771,0.1622373 1.38462,0.535326 1.72081,1.0578928 0.81061,1.2599495 0.83295,4.4855125 0.0392,5.6841595 -0.2376,0.358869 -0.58196,0.645996 -0.95667,0.797706 l -0.27435,0.111075 0.10973,0.402371 c 0.0602,0.221307 0.17699,0.633566 0.25926,0.916132 0.0823,0.282568 0.265,0.920659 0.40604,1.417979 0.14109,0.497319 0.32396,1.13541 0.40646,1.417978 0.0825,0.282568 0.19526,0.670969 0.25051,0.863116 0.30289,1.053204 0.63056,2.133276 0.68269,2.250274 l 0.0595,0.133577 h -0.8154 c -0.80763,0 -0.81597,-0.0011 -0.87405,-0.11303 -0.0988,-0.190644 -0.34889,-1.004057 -0.67254,-2.188616 -0.51086,-1.86966 -0.89622,-3.267693 -1.11028,-4.027882 -0.11149,-0.395596 -0.20311,-0.743306 -0.20382,-0.772692 -8e-4,-0.03904 -0.15869,-0.05009 -0.58499,-0.0411 l -0.58376,0.01228 -0.0259,3.565493 -0.026,3.565497 h -0.76083 -0.76086 z m 3.14731,-4.776695 c 0.91006,-0.217639 1.31963,-1.127567 1.31963,-2.931701 0,-1.8210432 -0.38775,-2.7639516 -1.24004,-3.0155233 -0.20663,-0.060986 -0.44789,-0.082174 -0.96444,-0.084682 l -0.68886,-0.00329 -0.0262,3.0517363 -0.0262,3.051735 h 0.67028 c 0.44221,0 0.76729,-0.02321 0.95551,-0.06823 z m 4.59342,0.596656 0.0257,-7.577223 1.3705,0.00277 c 1.19458,0.00225 1.42266,0.01401 1.77662,0.090061 1.45599,0.3132253 2.05464,0.9672959 2.45436,2.681544 0.14421,0.618446 0.16673,1.324168 0.1605,5.03485 -0.007,4.535521 -0.0553,5.104956 -0.49699,5.939069 -0.20473,0.38651 -0.75816,0.882554 -1.18381,1.061058 -0.69307,0.290647 -0.87634,0.314074 -2.58411,0.330379 l -1.54847,0.0147 z m 2.61051,6.562283 c 0.61215,-0.128164 1.00901,-0.487454 1.28318,-1.16172 0.38692,-0.951501 0.38354,-8.911048 -0.004,-10.347333 -0.31169,-1.1540796 -0.69692,-1.5623953 -1.57446,-1.6688389 -0.78743,-0.095509 -0.71561,-0.7571051 -0.71561,6.5927969 0,3.625118 0.0304,6.603453 0.0678,6.618525 0.11873,0.04807 0.64317,0.02947 0.94362,-0.03345 z m 19.08985,-6.57874 V 4.8582171 l 0.73603,0.012107 0.73603,0.012107 0.0259,3.4627439 0.0259,3.462743 h 1.47148 1.47147 V 8.334892 4.8618735 h 0.7614 0.76141 v 7.5831005 7.583103 h -0.7615 -0.7614 v -3.657974 c 0,-2.011885 -0.0342,-3.659564 -0.0761,-3.661506 -0.042,-0.0021 -0.70429,-0.01193 -1.47205,-0.02191 l -1.39591,-0.01839 v 3.679887 3.679888 h -0.76139 -0.76143 z m 8.02015,0.0019 V 4.8618026 h 2.38576 2.38574 v 0.4716142 0.4716159 l -1.59898,0.011415 -1.59895,0.011416 v 3.0209103 3.020909 l 1.34515,0.01159 1.34516,0.01159 v 0.449722 0.449725 l -1.34516,0.01159 -1.34515,0.01159 v 3.123665 3.12366 l 1.59895,0.01142 1.59898,0.01141 v 0.471614 0.471614 h -2.38574 -2.38576 z m 6.21788,0.01211 0.0257,-7.5746297 1.01936,-0.011761 1.01935,-0.011761 0.12168,0.6075788 c 0.11762,0.5873509 0.25144,1.3349692 0.57956,3.2380339 0.0857,0.497321 0.20091,1.163153 0.25595,1.47963 0.055,0.316475 0.16918,0.973061 0.25371,1.459079 0.0845,0.486017 0.19756,1.133354 0.25127,1.43853 0.0537,0.305174 0.12382,0.730568 0.15589,0.945318 0.0321,0.214751 0.10018,0.62165 0.15112,0.904218 0.0512,0.282568 0.14175,0.865171 0.20136,1.294673 0.11103,0.799078 0.19082,1.149298 0.25597,1.122923 0.0203,-0.0081 0.0855,-0.338173 0.14503,-0.733308 0.0595,-0.395129 0.17741,-1.116068 0.26186,-1.602085 0.16755,-0.964151 0.70422,-4.14372 0.86022,-5.096503 0.13074,-0.79849 0.38501,-2.243886 0.50608,-2.8770595 0.054,-0.2825662 0.14899,-0.8466764 0.21098,-1.2535756 0.1577,-1.0349045 0.0132,-0.9247682 1.21439,-0.9247682 h 1.01329 v 7.5831033 7.5831 h -0.71066 -0.71065 l -0.0132,-6.072644 c -0.007,-3.339956 -0.0487,-5.94318 -0.0923,-5.784942 -0.0436,0.158242 -0.13155,0.657615 -0.19565,1.109724 -0.064,0.45211 -0.15951,1.053208 -0.21224,1.335775 -0.0526,0.28257 -0.1406,0.781943 -0.19551,1.109723 -0.0548,0.327781 -0.16993,0.993613 -0.2557,1.47963 -0.0858,0.486017 -0.20008,1.161098 -0.254,1.50018 -0.0537,0.339083 -0.12217,0.718237 -0.15194,0.842567 -0.0296,0.124324 -0.0991,0.540475 -0.15441,0.924766 -0.0982,0.681933 -0.30789,1.90593 -0.50356,2.938711 -0.0535,0.282568 -0.0987,0.536879 -0.10054,0.565134 -10e-4,0.0361 -0.21458,0.05137 -0.71375,0.05137 -0.7075,0 -0.71065,-5e-4 -0.71095,-0.11303 -2.8e-4,-0.111595 -0.14964,-1.021059 -0.45736,-2.784579 -0.0869,-0.497321 -0.27107,-1.579301 -0.40957,-2.404397 -0.13846,-0.825099 -0.31954,-1.888584 -0.40233,-2.363299 -0.0829,-0.474716 -0.26714,-1.556693 -0.40969,-2.404397 -0.14258,-0.847706 -0.29129,-1.6615 -0.33056,-1.808436 -0.0393,-0.146947 -0.0713,2.46091 -0.0713,5.795216 v 6.062369 l -0.73629,0.01211 -0.73631,0.01211 z m 10.53308,-0.01211 V 4.8618026 h 0.81217 0.81215 v 7.5831014 7.5831 h -0.81215 -0.81217 z m 12.58861,0.472659 V 5.8071204 h -1.06597 -1.06598 V 5.3344736 4.8618147 h 2.9441 2.94411 v 0.4726589 0.4726589 h -1.06595 -1.066 v 7.1104425 7.110442 h -0.81216 -0.81215 z m -76.28214,1.044705 c -0.0804,-0.08489 -0.0804,-2.949855 0,-3.034739 0.0338,-0.03575 0.14816,-0.06502 0.2538,-0.06502 0.21264,0 0.18756,-0.220506 0.24074,2.116693 0.0118,0.519922 8.1e-4,0.968436 -0.0245,0.996693 -0.0653,0.07323 -0.39692,0.06365 -0.47015,-0.01366 z m 8.37556,-0.237906 c -0.082,-0.04002 -0.10773,-0.42325 -0.0885,-1.325502 0.0263,-1.238163 0.0317,-1.269188 0.2299,-1.269188 0.19791,0 0.20376,0.03124 0.23146,1.233024 0.0148,0.678164 0.004,1.274639 -0.0273,1.325499 -0.0636,0.105559 -0.17854,0.117614 -0.34549,0.03618 z"
         id="path5"
         sodipodi:nodetypes="cssccccccsssscscccccssccsscsssscsscscssssccscccsscccccsscccccsscscccscsccccccscccsscsscccssssscscccccssccssscssssssssscssscsscssssssssscsssscscccccccccccsssscccccccccccccssssccsscsccscscscscsccsccccccsssccccsssccccsccsccccscsscccccccccccccccccccscccccccccccccccccccccccccccccccccccccscsssscccssssssccccccscccscccscsscscsssccccccccccccccccccccccccccccccccsscccscsccss" />
    </g>
  </g>
</svg>
