<?xml version="1.0" encoding="UTF-8" standalone="no"?>
<!-- Created with Inkscape (http://www.inkscape.org/) -->

<svg
   width="8.4057837mm"
   height="3.6958947mm"
   viewBox="0 0 8.4057837 3.6958947"
   version="1.1"
   id="svg1"
   inkscape:version="1.4.2 (f4327f4, 2025-05-13)"
   sodipodi:docname="drude.svg"
   xmlns:inkscape="http://www.inkscape.org/namespaces/inkscape"
   xmlns:sodipodi="http://sodipodi.sourceforge.net/DTD/sodipodi-0.dtd"
   xmlns="http://www.w3.org/2000/svg"
   xmlns:svg="http://www.w3.org/2000/svg">
  <sodipodi:namedview
     id="namedview1"
     pagecolor="#ffffff"
     bordercolor="#000000"
     borderopacity="0.25"
     inkscape:showpageshadow="2"
     inkscape:pageopacity="0.0"
     inkscape:pagecheckerboard="0"
     inkscape:deskcolor="#d1d1d1"
     inkscape:document-units="mm"
     inkscape:zoom="1"
     inkscape:cx="93.5"
     inkscape:cy="142.5"
     inkscape:window-width="3840"
     inkscape:window-height="1520"
     inkscape:window-x="1911"
     inkscape:window-y="-9"
     inkscape:window-maximized="1"
     inkscape:current-layer="layer1" />
  <defs
     id="defs1" />
  <g
     inkscape:label="Layer 1"
     inkscape:groupmode="layer"
     id="layer1"
     transform="translate(-80.191863,-110.69476)">
    <path
       style="fill:#163ae4;fill-opacity:1;stroke-width:0.264583"
       d="m 84.411662,114.38584 c -0.248385,-0.0348 -0.419391,-0.20363 -0.476459,-0.47038 -0.03305,-0.15451 -0.03519,-0.26028 -0.03519,-1.73997 v -1.47871 h 0.143383 0.14338 v 1.53312 c 0,1.68272 -0.0024,1.61151 0.05885,1.74443 0.03251,0.0706 0.07589,0.11452 0.143864,0.14579 0.06891,0.0317 0.215784,0.0327 0.282324,0.002 0.12917,-0.0598 0.185656,-0.17587 0.206322,-0.42415 0.0062,-0.0747 0.0084,-0.63648 0.006,-1.51787 -0.0021,-0.76956 -0.0016,-1.41812 0.0016,-1.44123 l 0.0053,-0.042 h 0.137401 0.137398 v 1.50082 c 0,0.96274 -0.0036,1.52972 -0.01011,1.58141 -0.03073,0.24504 -0.118718,0.42334 -0.25286,0.51238 -0.09159,0.0608 -0.199929,0.0934 -0.326988,0.0983 -0.05895,0.002 -0.132797,5.3e-4 -0.164107,-0.004 z m -0.341857,-1.60908 c 0.01656,-0.015 0.0181,-0.0363 0.0181,-0.25145 0,-0.20053 -0.0024,-0.23737 -0.01553,-0.25062 -0.02193,-0.0219 -0.04994,-0.0193 -0.06795,0.006 -0.01283,0.0183 -0.0154,0.0594 -0.0154,0.24721 0,0.21205 0.0011,0.22639 0.01976,0.24501 0.02405,0.0241 0.03739,0.0248 0.06102,0.003 z m 0.988838,0 c 0.01656,-0.015 0.01807,-0.0363 0.01807,-0.25216 0,-0.2226 -0.0011,-0.23689 -0.01977,-0.25556 -0.02405,-0.0241 -0.03739,-0.0248 -0.06102,-0.003 -0.01656,0.015 -0.0181,0.0363 -0.0181,0.25384 0,0.2071 0.0021,0.2398 0.01638,0.25557 0.02029,0.0224 0.04093,0.023 0.06443,0.002 z m -4.866778,-0.25559 v -1.82601 l 0.37823,0.004 c 0.341426,0.004 0.385008,0.006 0.447887,0.0239 0.234063,0.0667 0.368853,0.22859 0.425458,0.51114 0.03854,0.19239 0.04372,0.34639 0.04363,1.29688 -9.3e-5,0.9505 -0.0064,1.14366 -0.04323,1.31595 -0.04302,0.20143 -0.145489,0.35476 -0.284009,0.42495 -0.127548,0.0646 -0.144246,0.0667 -0.574905,0.0711 l -0.393063,0.004 z m 0.643054,1.57787 c 0.187722,-0.0198 0.285382,-0.11072 0.329816,-0.30719 0.03277,-0.14492 0.03756,-0.30937 0.03682,-1.26572 -5.29e-4,-0.77559 -0.0034,-0.96995 -0.01587,-1.08769 -0.03115,-0.29467 -0.104875,-0.42686 -0.267777,-0.48016 -0.04959,-0.0162 -0.08738,-0.0192 -0.246448,-0.0192 l -0.187878,-3e-5 -0.0024,1.57936 -0.0024,1.57937 0.121163,0.003 c 0.06664,0.002 0.127836,0.004 0.135996,0.005 0.0081,0.001 0.0528,-0.002 0.09919,-0.007 z m 1.193919,-0.14156 c -0.003,-0.21346 -0.0045,-0.51717 -0.0034,-0.67488 0.0011,-0.15772 0.0029,-0.80449 0.0039,-1.43726 l 0.0019,-1.15049 0.383175,0.005 c 0.420145,0.005 0.436766,0.007 0.56611,0.0694 0.112845,0.0544 0.218321,0.18354 0.258376,0.31636 0.04039,0.13393 0.05037,0.2306 0.05537,0.53623 0.0031,0.19026 7.94e-4,0.34416 -0.0058,0.40542 -0.03126,0.28626 -0.121626,0.45786 -0.290555,0.55175 -0.03121,0.0174 -0.05679,0.0378 -0.05686,0.0454 -6.3e-5,0.008 0.04212,0.16781 0.09375,0.35598 0.05163,0.18817 0.124817,0.45559 0.162642,0.59427 0.06571,0.24096 0.0842,0.30989 0.169031,0.63039 l 0.0373,0.14091 h -0.147368 c -0.08105,0 -0.14737,-0.002 -0.14737,-0.004 0,-0.002 -0.01273,-0.0476 -0.02827,-0.10135 -0.01556,-0.0537 -0.03607,-0.12885 -0.04561,-0.16692 -0.0095,-0.0381 -0.02772,-0.10482 -0.04041,-0.14832 -0.0127,-0.0435 -0.03411,-0.12138 -0.0476,-0.17305 -0.01349,-0.0517 -0.04105,-0.15624 -0.06124,-0.23238 -0.02019,-0.0761 -0.05853,-0.22076 -0.0852,-0.32138 -0.04471,-0.16869 -0.136337,-0.52546 -0.136559,-0.53173 -5.3e-5,-0.002 -0.07908,-0.002 -0.175615,0 l -0.175519,0.003 -0.0026,0.83804 -0.0026,0.83805 h -0.136795 -0.136797 z m 0.728533,-1.55369 c 0.19799,-0.0719 0.262625,-0.2431 0.262538,-0.69553 -9.2e-5,-0.47367 -0.05843,-0.66429 -0.225163,-0.73576 -0.06547,-0.0281 -0.174104,-0.0397 -0.338442,-0.0364 l -0.14338,0.003 -0.0026,0.7441 -0.0026,0.7441 h 0.192437 c 0.177763,0 0.197363,-0.002 0.25708,-0.0235 z m 3.021431,0.1172 v -1.82623 l 0.358454,0.005 c 0.403429,0.005 0.428826,0.009 0.568725,0.0778 0.208671,0.10298 0.294719,0.29048 0.33337,0.72642 0.01167,0.13147 0.01484,0.3392 0.01492,0.97579 1.16e-4,0.76643 -0.0066,1.04087 -0.03008,1.2332 -0.04168,0.34104 -0.158351,0.51173 -0.409924,0.59969 l -0.07901,0.0276 -0.378233,0.004 -0.378229,0.004 z m 0.745524,1.54384 c 0.07469,-0.0367 0.130135,-0.0924 0.160779,-0.16175 0.06303,-0.14251 0.07313,-0.33645 0.07275,-1.39672 -2.64e-4,-0.86286 -0.006,-1.06239 -0.03458,-1.21687 -0.05216,-0.28174 -0.174469,-0.36273 -0.534107,-0.35368 l -0.12855,0.003 -0.0026,1.57226 c -0.0013,0.86474 -7.94e-4,1.5767 0.0013,1.58214 0.0024,0.006 0.07541,0.008 0.20525,0.005 0.197557,-0.005 0.202663,-0.006 0.2598,-0.0336 z m 1.064048,-1.54373 v -1.8245 l 0.501838,0.003 0.501835,0.003 0.0028,0.11619 0.0028,0.11619 h -0.361241 -0.361241 v 0.70688 0.70689 l 0.316994,0.003 0.316992,0.003 0.0011,0.11866 0.0011,0.11866 -0.318138,0.003 -0.318135,0.003 v 0.75138 0.75137 h 0.355984 0.355981 v 0.10797 c 0,0.0594 0.0027,0.115 0.006,0.1236 0.0054,0.0141 -0.0426,0.0156 -0.499364,0.0156 h -0.505367 z m -3.089558,0.81368 c -0.01363,-0.0194 -0.0154,-0.11312 -0.0154,-0.81359 0,-0.70047 0.0019,-0.79415 0.0154,-0.81359 0.01802,-0.0257 0.04602,-0.0284 0.06795,-0.006 0.01386,0.0139 0.01553,0.10153 0.01553,0.81644 0,0.53317 -0.0034,0.80729 -0.01024,0.82003 -0.01389,0.0259 -0.05418,0.0244 -0.07326,-0.003 z m -0.196794,-0.26309 c -0.01479,-0.0164 -0.01638,-0.0687 -0.01638,-0.54661 0,-0.46235 0.0019,-0.53127 0.0154,-0.55049 0.01871,-0.0267 0.04511,-0.0282 0.06713,-0.004 0.01482,0.0163 0.01635,0.0694 0.01635,0.55671 0,0.40575 -0.0029,0.54156 -0.01185,0.5505 -0.01746,0.0175 -0.05196,0.0144 -0.07065,-0.006 z m 0.401145,-0.007 -0.02199,-0.0154 v -0.52824 -0.52824 l 0.02405,-0.0158 c 0.01871,-0.0122 0.0286,-0.0133 0.0445,-0.005 0.01125,0.006 0.02051,0.0163 0.02058,0.0229 7.4e-5,0.007 0.0021,0.24471 0.0045,0.52912 0.0042,0.50306 0.0038,0.51763 -0.01497,0.53644 -0.02334,0.0233 -0.02848,0.0237 -0.05669,0.004 z m -0.98906,-0.006 c -0.0089,-0.009 -0.01185,-0.14222 -0.01185,-0.53913 v -0.52726 l 0.02347,-0.0107 c 0.01704,-0.008 0.02923,-0.008 0.0445,5.3e-4 l 0.02103,0.0113 v 0.5267 c 0,0.55469 2.65e-4,0.55043 -0.0445,0.55043 -0.01143,0 -0.02612,-0.005 -0.03263,-0.0118 z m 1.570916,-0.0936 c -0.02011,-0.0141 -0.02043,-0.021 -0.02043,-0.44235 0,-0.40214 0.0011,-0.42905 0.0181,-0.44442 0.02479,-0.0224 0.04711,-0.0205 0.06541,0.006 0.01334,0.019 0.0154,0.0767 0.0154,0.4295 0,0.22518 -0.0041,0.41827 -0.0091,0.43154 -0.01138,0.0299 -0.04247,0.0389 -0.06934,0.0201 z m -1.768684,-0.16349 c -0.01542,-0.0154 -0.01693,-0.52384 -0.0016,-0.55242 0.01238,-0.0232 0.05163,-0.0251 0.07311,-0.004 0.01333,0.0133 0.01553,0.0523 0.01553,0.27535 0,0.23913 -0.0013,0.2611 -0.0181,0.27617 -0.02125,0.0192 -0.05219,0.0212 -0.06893,0.004 z m 1.970172,-0.0219 c -0.0181,-0.0132 -0.01918,-0.0279 -0.01918,-0.25789 0,-0.22998 0.0011,-0.24465 0.01918,-0.25789 0.02477,-0.0181 0.03997,-0.0177 0.05921,0.002 0.01328,0.0133 0.01553,0.0505 0.01553,0.25556 0,0.21998 -0.0016,0.24139 -0.01807,0.25639 -0.02212,0.02 -0.03193,0.0204 -0.05666,0.002 z m -2.177426,-0.13415 c -0.01482,-0.0237 -0.01677,-0.20454 -0.0026,-0.24176 0.0072,-0.019 0.01669,-0.0254 0.03758,-0.0254 0.04681,0 0.05166,0.0135 0.05166,0.14338 0,0.0799 -0.0039,0.1236 -0.01185,0.13152 -0.01857,0.0186 -0.06106,0.0142 -0.07475,-0.008 z m 2.361293,5.2e-4 c -0.0056,-0.0105 -0.01024,-0.062 -0.01024,-0.11436 0,-0.11053 0.0085,-0.13349 0.04944,-0.13349 0.01852,0 0.03266,0.007 0.0392,0.0191 0.01461,0.0273 0.01328,0.22108 -0.0016,0.23599 -0.01881,0.0188 -0.06518,0.0144 -0.07678,-0.007 z"
       id="path4" />
  </g>
</svg>
