<?xml version="1.0" encoding="UTF-8" standalone="no"?>
<!-- Created with Inkscape (http://www.inkscape.org/) -->

<svg
   width="500mm"
   height="500mm"
   viewBox="0 0 500 500"
   version="1.1"
   id="svg1"
   inkscape:export-filename="drude.png"
   inkscape:export-xdpi="72"
   inkscape:export-ydpi="72"
   inkscape:version="1.4.2 (f4327f4, 2025-05-13)"
   sodipodi:docname="drude sqare.svg"
   xmlns:inkscape="http://www.inkscape.org/namespaces/inkscape"
   xmlns:sodipodi="http://sodipodi.sourceforge.net/DTD/sodipodi-0.dtd"
   xmlns="http://www.w3.org/2000/svg"
   xmlns:svg="http://www.w3.org/2000/svg">
  <sodipodi:namedview
     id="namedview1"
     pagecolor="#ffffff"
     bordercolor="#000000"
     borderopacity="0.25"
     inkscape:showpageshadow="2"
     inkscape:pageopacity="0.0"
     inkscape:pagecheckerboard="0"
     inkscape:deskcolor="#d1d1d1"
     inkscape:document-units="mm"
     inkscape:zoom="0.58395412"
     inkscape:cx="1449.6002"
     inkscape:cy="834.82585"
     inkscape:window-width="3840"
     inkscape:window-height="1520"
     inkscape:window-x="1911"
     inkscape:window-y="-9"
     inkscape:window-maximized="1"
     inkscape:current-layer="layer1" />
  <defs
     id="defs1" />
  <g
     inkscape:label="Layer 1"
     inkscape:groupmode="layer"
     id="layer1">
    <path
       style="fill:#163ae4;fill-opacity:1;stroke-width:12.5066"
       d="m 250.74963,341.77297 c -11.14585,-1.73276 -18.81978,-10.13912 -21.38075,-23.42109 -1.48534,-7.69334 -1.57957,-12.95982 -1.57957,-86.63632 v -73.6277 h 6.43451 6.43406 v 76.33687 c 0,83.78574 -0.0897,80.24006 2.64308,86.85839 1.45841,3.51531 3.40595,5.70217 6.4556,7.25916 3.09183,1.5784 9.68295,1.62819 12.66888,0.0996 5.7964,-2.97755 8.33134,-8.75689 9.25889,-21.11921 0.26924,-3.71945 0.35899,-31.69152 0.26924,-75.57755 -0.0898,-38.31781 -0.0898,-70.61081 0.0897,-71.7615 l 0.22437,-2.09126 h 6.16571 6.16572 v 74.7286 c 0,47.9366 -0.1795,76.16758 -0.45323,78.74132 -1.37764,12.20099 -5.32747,21.07888 -11.34689,25.51235 -4.11047,3.02734 -8.97169,4.65056 -14.6734,4.89454 -2.64309,0.0996 -5.95929,0.0264 -7.3643,-0.19917 z M 235.40894,261.6539 c 0.74491,-0.74688 0.81223,-1.80744 0.81223,-12.52016 0,-9.98476 -0.0898,-11.81909 -0.69555,-12.47883 -0.98275,-1.09044 -2.24371,-0.96098 -3.04696,0.29875 -0.57439,0.91119 -0.69106,2.95764 -0.69106,12.30904 0,10.55836 0.0449,11.27238 0.88402,12.1995 1.08147,1.19999 1.67829,1.23484 2.73732,0.14938 z m 44.37338,0 c 0.74491,-0.74688 0.81222,-1.80744 0.81222,-12.55551 0,-11.08366 -0.0449,-11.79519 -0.8885,-12.7248 -1.07698,-1.19999 -1.6783,-1.23484 -2.73733,-0.14938 -0.74491,0.74688 -0.81222,1.80745 -0.81222,12.63916 0,10.31189 0.0897,11.94009 0.73593,12.72531 0.91095,1.11533 1.83536,1.14521 2.8899,0.0996 z M 61.389584,248.9276 v -90.9204 l 16.97321,0.19916 c 15.32094,0.19917 17.27655,0.29876 20.098242,1.19003 10.503704,3.32112 16.552294,11.38192 19.092174,25.4506 1.72765,9.57946 1.961,17.2474 1.95651,64.57405 -0.004,47.32715 -0.26924,56.94494 -1.93856,65.52358 -1.92959,10.02957 -6.52875,17.66416 -12.74472,21.15905 -5.723704,3.21655 -6.473104,3.32111 -25.798166,3.5402 l -17.63869,0.19916 z m 28.85678,78.56506 c 8.423782,-0.98587 12.806206,-5.51295 14.799966,-15.29555 1.47187,-7.21584 1.68726,-15.40411 1.65136,-63.02254 -0.0233,-38.61806 -0.13462,-48.2956 -0.71349,-54.15809 -1.40008,-14.67216 -4.70641,-21.25415 -12.016416,-23.90805 -2.22576,-0.80663 -3.922,-0.95601 -11.05924,-0.95601 l -8.43096,-0.001 -0.0897,78.63925 -0.0898,78.63975 5.43741,0.14937 c 2.98862,0.0996 5.73626,0.19917 6.10244,0.24896 0.35899,0.0498 2.36935,-0.0996 4.45151,-0.34854 z m 53.576186,-7.04853 c -0.13462,-10.62857 -0.22437,-25.75085 -0.13462,-33.60352 0.0449,-7.85317 0.13462,-40.05704 0.17949,-71.56383 l 0.0898,-57.28502 17.19444,0.24896 c 18.85388,0.24896 19.59969,0.34854 25.40372,3.45555 5.06405,2.70868 9.79693,9.1388 11.59459,15.75215 1.81291,6.66862 2.26165,11.482 2.48603,26.69988 0.13462,9.4734 0.0355,17.13637 -0.26925,20.18661 -1.40456,14.25342 -5.45805,22.7977 -13.03864,27.47266 -1.40007,0.86637 -2.54885,1.88213 -2.55334,2.26054 -0.003,0.39834 1.8892,8.35557 4.20471,17.72491 2.31551,9.36933 5.60119,22.68466 7.29878,29.5898 2.94824,11.99784 3.77841,15.42999 7.58509,31.38828 l 1.6738,7.01617 h -6.6131 c -3.6393,0 -6.61311,-0.0996 -6.61311,-0.19917 0,-0.0996 -0.5699,-2.37009 -1.26994,-5.0464 -0.70004,-2.67383 -1.61996,-6.41568 -2.04626,-8.31126 -0.44874,-1.89707 -1.24302,-5.21918 -1.81292,-7.38513 -0.5699,-2.16594 -1.53021,-6.04373 -2.13601,-8.61647 -0.6058,-2.57424 -1.84433,-7.77948 -2.7463,-11.57063 -0.90646,-3.78916 -2.62514,-10.99205 -3.82328,-16.00211 -2.00588,-8.39938 -6.11814,-26.16362 -6.12802,-26.47582 -0.002,-0.0996 -3.54954,-0.0996 -7.88035,0 l -7.87632,0.14938 -0.13462,41.72756 -0.13462,41.72805 h -6.13879 -6.13878 z m 32.69218,-77.36109 c 8.88464,-3.58004 11.7853,-12.1044 11.78127,-34.63172 -0.004,-23.58491 -2.62066,-33.07623 -10.10387,-36.63485 -2.93926,-1.39915 -7.81305,-1.97674 -15.18767,-1.81243 l -6.43406,0.14938 -0.13462,37.05011 -0.13462,37.05011 h 8.63558 c 7.97684,0 8.85637,-0.0996 11.53626,-1.1701 z m 135.58418,5.8356 v -90.93136 l 16.08559,0.24896 c 18.10314,0.24896 19.24295,0.44813 25.52084,3.87381 9.3639,5.12756 13.22532,14.46353 14.95971,36.16979 0.52502,6.54613 0.66413,16.88939 0.66862,48.58638 0.005,38.16197 -0.31412,51.82684 -1.35071,61.40331 -1.87125,16.98101 -7.10583,25.47998 -18.39482,29.85967 l -3.54506,1.37425 -16.97321,0.19917 -16.97276,0.19917 z m 33.45504,76.87064 c 3.3521,-1.82736 5.83948,-4.60076 7.21487,-8.05383 2.82707,-7.09583 3.2803,-16.75246 3.26235,-69.54526 -0.0117,-42.96339 -0.26924,-52.89836 -1.55264,-60.59021 -2.34244,-14.02835 -7.82875,-18.06099 -23.9673,-17.61038 l -5.76858,0.14938 -0.13462,78.28573 c -0.0449,43.057 -0.0359,78.5068 0.0449,78.77767 0.0897,0.29875 3.38351,0.39833 9.21042,0.24896 8.86534,-0.24896 9.0942,-0.29875 11.65831,-1.67301 z m 47.74792,-76.86516 V 158.0789 l 22.51965,0.14937 22.51966,0.14938 0.13462,5.78531 0.13462,5.78532 h -16.21034 -16.2108 v 35.19686 35.19735 l 14.22511,0.14938 14.22467,0.14938 0.0449,5.9083 0.0449,5.9083 -14.27627,0.14937 -14.27582,0.14938 v 37.41259 37.4121 h 15.9743 15.97431 v 5.37603 c 0,2.95763 0.13463,5.72606 0.26925,6.15427 0.22437,0.70207 -1.91164,0.77675 -22.40837,0.77675 H 393.3082 Z m -138.64101,40.51463 c -0.61029,-0.96596 -0.69106,-5.63246 -0.69106,-40.51015 0,-34.87769 0.0897,-39.54219 0.69106,-40.51015 0.80774,-1.27965 2.06421,-1.41409 3.04696,-0.29875 0.62375,0.69211 0.69555,5.05537 0.69555,40.65206 0,26.54751 -0.13463,40.19646 -0.45772,40.8308 -0.62375,1.28961 -2.43218,1.21492 -3.28928,-0.14937 z m -8.83124,-13.09974 c -0.66413,-0.81658 -0.73593,-3.4207 -0.73593,-27.21672 0,-23.02126 0.0898,-26.45291 0.69106,-27.40991 0.83915,-1.32944 2.02382,-1.40413 3.01106,-0.19917 0.66413,0.81161 0.73145,3.45555 0.73145,27.71962 0,20.20304 -0.13463,26.96527 -0.53401,27.41041 -0.7853,0.87136 -2.33345,0.717 -3.1726,-0.29875 z m 18.00128,-0.34854 -0.98723,-0.7668 v -26.30204 -26.30204 l 1.07698,-0.78672 c 0.83914,-0.60746 1.2834,-0.66223 1.9969,-0.24896 0.50708,0.29876 0.91992,0.81161 0.92441,1.14024 0.003,0.34854 0.0897,12.18456 0.22437,26.34586 0.17949,25.04829 0.17949,25.77375 -0.67312,26.71034 -1.04556,1.16015 -1.27891,1.18006 -2.54436,0.19916 z m -44.38325,-0.29875 c -0.40387,-0.44813 -0.52952,-7.0814 -0.52952,-26.84428 v -26.25325 l 1.05455,-0.53277 c 0.76286,-0.39834 1.31032,-0.39834 1.9969,0.0264 l 0.94235,0.56265 v 26.22536 c 0,27.61904 0.0117,27.40693 -1.9969,27.40693 -0.51156,0 -1.17121,-0.24896 -1.46289,-0.58755 z m 70.49329,-4.66052 c -0.90197,-0.70206 -0.91544,-1.04563 -0.91544,-22.02542 0,-20.02329 0.0449,-21.36319 0.81223,-22.12849 1.11288,-1.11534 2.11357,-1.02074 2.93477,0.29875 0.59682,0.94604 0.69106,3.81903 0.69106,21.38559 0,11.21213 -0.1795,20.82644 -0.40387,21.48718 -0.51156,1.48877 -1.90715,1.9369 -3.10978,1.00081 z m -79.36806,-8.14047 c -0.69106,-0.76679 -0.75837,-26.08296 -0.0897,-27.50601 0.55644,-1.15517 2.31551,-1.24977 3.28031,-0.19917 0.59682,0.66223 0.69555,2.60412 0.69555,13.71019 0,11.90672 -0.0449,13.00065 -0.81223,13.75101 -0.95582,0.95601 -2.34243,1.05559 -3.09183,0.19917 z m 88.40975,-1.09044 c -0.81222,-0.65725 -0.86158,-1.38919 -0.86158,-12.84082 0,-11.45113 0.0449,-12.18157 0.86158,-12.84082 1.11288,-0.90123 1.79497,-0.88131 2.65656,0.0996 0.59682,0.66223 0.69555,2.51448 0.69555,12.7248 0,10.95321 -0.0897,12.01925 -0.81223,12.76613 -0.99172,0.99584 -1.43148,1.01576 -2.54436,0.0996 z m -97.70992,-6.67958 c -0.66414,-1.18006 -0.75389,-10.18442 -0.13462,-12.03767 0.31412,-0.94605 0.7494,-1.26471 1.68727,-1.26471 2.10011,0 2.31999,0.67218 2.31999,7.13915 0,3.97837 -0.1795,6.15427 -0.534,6.54862 -0.83466,0.92613 -2.74181,0.70705 -3.3521,-0.39833 z m 105.96094,0.0259 c -0.26925,-0.52282 -0.45772,-3.0871 -0.45772,-5.6942 0,-5.50349 0.359,-6.64671 2.21679,-6.64671 0.83017,0 1.46738,0.34854 1.75906,0.95102 0.65517,1.35932 0.59683,11.00798 -0.0897,11.75038 -0.84364,0.93609 -2.9258,0.717 -3.44634,-0.34854 z"
       id="path4" />
  </g>
</svg>
